<?xml version="1.0"?>
<svg xmlns="http://www.w3.org/2000/svg" xmlns:xlink="http://www.w3.org/1999/xlink" id="Gradient" viewBox="0 0 512 512" width="512" height="512"><defs><linearGradient id="linear-gradient" x1="256" y1="496" x2="256" y2="16" gradientUnits="userSpaceOnUse"><stop offset="0" stop-color="#27c1e6"/><stop offset="0.5" stop-color="#c275e9"/><stop offset="1" stop-color="#f2515d"/></linearGradient></defs><path d="M392,16H88a8,8,0,0,0-8,8V278.131A23.943,23.943,0,0,0,72,296V472a24.028,24.028,0,0,0,24,24H416a24.028,24.028,0,0,0,24-24V344a23.943,23.943,0,0,0-8-17.869V40a8,8,0,0,0-8-8H400V24A8,8,0,0,0,392,16ZM96,32H384V320H311.494a7.978,7.978,0,0,1-6.146-2.878l-30.405-36.486A23.932,23.932,0,0,0,256.506,272H96ZM424,472a8.009,8.009,0,0,1-8,8H96a8.009,8.009,0,0,1-8-8V296a8.009,8.009,0,0,1,8-8H256.506a7.977,7.977,0,0,1,6.145,2.878l30.406,36.487A23.937,23.937,0,0,0,311.494,336H416a8.009,8.009,0,0,1,8,8ZM416,48V320H400V48ZM368,248V56a8,8,0,0,0-8-8H120a8,8,0,0,0-8,8V248a8,8,0,0,0,8,8H360A8,8,0,0,0,368,248Zm-16-8H128V64H352Zm0,168v32a8,8,0,0,1-8,8H296a8,8,0,0,1-8-8V376a8,8,0,0,1,8-8h40a8,8,0,0,1,0,16H304v48h32V416h-8a8,8,0,0,1,0-16h16A8,8,0,0,1,352,408ZM176,384v16h24a8,8,0,0,1,8,8v32a8,8,0,0,1-8,8H168a8,8,0,0,1,0-16h24V416H168a8,8,0,0,1-8-8V376a8,8,0,0,1,8-8h32a8,8,0,0,1,0,16Zm95.761-6.06-16,64a8,8,0,0,1-15.522,0l-16-64a8,8,0,1,1,15.522-3.88L248,407.016l8.239-32.956a8,8,0,1,1,15.522,3.88ZM152,224h32a8,8,0,0,0,8-8v-8h96v8a8,8,0,0,0,8,8h32a8,8,0,0,0,8-8V184a8,8,0,0,0-8-8h-8V128h8a8,8,0,0,0,8-8V88a8,8,0,0,0-8-8H296a8,8,0,0,0-8,8v8H192V88a8,8,0,0,0-8-8H152a8,8,0,0,0-8,8v32a8,8,0,0,0,8,8h8v48h-8a8,8,0,0,0-8,8v32A8,8,0,0,0,152,224Zm168-16H304V192h16ZM304,96h16v16H304ZM160,96h16v16H160Zm16,32h8a8,8,0,0,0,8-8v-8h96v8a8,8,0,0,0,8,8h8v48h-8a8,8,0,0,0-8,8v8H192v-8a8,8,0,0,0-8-8h-8Zm-16,64h16v16H160Z" style="fill:url(#linear-gradient)"/></svg>
